<svg width="174" height="36" viewBox="0 0 174 36" fill="none" xmlns="http://www.w3.org/2000/svg">
<path d="M43.0243 9.36464L39.905 26.6369C38.971 31.8073 33.9467 35.9996 28.6883 35.9996H7.98376C2.72304 35.9996 -0.783337 31.805 0.150615 26.6369L3.27228 9.36464C4.20623 4.19431 9.22825 0.00195312 14.489 0.00195312H35.1912C40.4519 0.00195312 43.9606 4.19662 43.0243 9.36464Z" fill="black"/>
<path d="M16.6231 25.2911C16.1295 25.2911 15.6567 25.0802 15.33 24.714L10.6301 19.4927C10.0322 18.8276 10.0322 17.8264 10.6301 17.1636L15.33 11.94C15.6405 11.5947 16.0669 11.3907 16.5327 11.3676C16.5652 11.3676 16.5999 11.3652 16.6347 11.3652C17.0588 11.3652 17.469 11.5228 17.7888 11.8125L17.8931 11.9075V11.9168C18.5072 12.568 18.5281 13.5947 17.9186 14.2737L14.2662 18.3316L17.9186 22.3896C18.5606 23.1034 18.5026 24.2065 17.7888 24.8484C17.469 25.1358 17.0565 25.2957 16.6254 25.2957L16.6231 25.2911Z" fill="white"/>
<path d="M16.6326 11.6831C16.9802 11.6831 17.3139 11.8129 17.5758 12.0493C18.1598 12.5753 18.2062 13.4792 17.6824 14.0632L13.84 18.332L17.6824 22.5985C18.2085 23.1825 18.1598 24.0863 17.5758 24.6124C17.3139 24.8488 16.9756 24.9786 16.6233 24.9786C16.2201 24.9786 15.833 24.8071 15.5642 24.5058L10.8643 19.2845C10.3753 18.7399 10.3753 17.9195 10.8643 17.3772L15.5642 12.1535C15.8191 11.8708 16.1691 11.704 16.5491 11.6854C16.577 11.6854 16.6048 11.6831 16.6349 11.6831M16.6349 11.0527C16.5932 11.0527 16.5538 11.0527 16.5121 11.0574C15.9675 11.0852 15.4646 11.3262 15.0984 11.7341L10.3985 16.9577C9.69399 17.741 9.69399 18.923 10.3985 19.7086L15.0984 24.9299C15.4854 25.3633 16.0439 25.6113 16.6256 25.6113C17.1332 25.6113 17.6221 25.4235 17.9999 25.0829C18.8411 24.325 18.9107 23.0226 18.1529 22.179L14.6905 18.332L18.1529 14.4849C18.519 14.0771 18.7067 13.551 18.6766 13.0017C18.6534 12.5545 18.4889 12.1373 18.2085 11.799V11.7688L17.9999 11.5811C17.6221 11.2405 17.1378 11.0527 16.6349 11.0527Z" fill="white"/>
<path d="M26.1507 25.2911C25.7197 25.2911 25.3072 25.1335 24.9873 24.8438C24.2736 24.2018 24.2156 23.0987 24.8576 22.3849L28.5099 18.327L24.8576 14.2714C24.2156 13.5576 24.2736 12.4545 24.9873 11.8125C25.3072 11.5251 25.722 11.3652 26.1507 11.3652C26.6444 11.3652 27.1148 11.5738 27.4439 11.94L32.1438 17.1636C32.7417 17.8264 32.7417 18.8276 32.1438 19.4927L27.4439 24.7163C27.1148 25.0825 26.642 25.2911 26.1507 25.2911Z" fill="white"/>
<path d="M26.1508 11.6831C26.5401 11.6831 26.9295 11.843 27.2099 12.1535L31.9098 17.3772C32.3988 17.9218 32.3988 18.7399 31.9098 19.2845L27.2099 24.5081C26.9411 24.8071 26.554 24.9786 26.1508 24.9786C25.7985 24.9786 25.4602 24.8488 25.1983 24.6124C24.6143 24.0863 24.5679 23.1825 25.0917 22.5985L28.9341 18.3297L25.0917 14.0632C24.5656 13.4792 24.6143 12.5753 25.1983 12.0493C25.4718 11.8036 25.8124 11.6831 26.1508 11.6831ZM26.1508 11.0527C25.6433 11.0527 25.1543 11.2405 24.7765 11.5788C23.9353 12.3366 23.8657 13.6391 24.6236 14.4826L28.0859 18.3297L24.6236 22.1767C23.8657 23.018 23.9329 24.3204 24.7765 25.0805C25.1566 25.4212 25.6433 25.6089 26.1508 25.6089C26.7325 25.6089 27.291 25.361 27.678 24.9299L32.3779 19.7063C33.0824 18.923 33.0824 17.741 32.3779 16.9554L27.678 11.7318C27.2887 11.3007 26.7325 11.0527 26.1508 11.0527Z" fill="white"/>
<path d="M20.5771 20.2136C20.3175 20.2136 20.058 20.1463 19.8285 20.0189C19.7196 19.9586 19.62 19.8868 19.5273 19.801C18.9015 19.2217 18.8621 18.2414 19.4415 17.6156L24.8505 11.6991C25.1425 11.3816 25.5574 11.2031 25.9884 11.2031C26.3778 11.2031 26.7509 11.3491 27.0359 11.611L27.0638 11.6365C27.664 12.2182 27.6941 13.18 27.124 13.7987L21.715 19.7153C21.4206 20.0328 21.0081 20.2136 20.5794 20.2136H20.5771Z" fill="white"/>
<path d="M25.9859 11.519C26.2848 11.519 26.5838 11.6256 26.8202 11.8435C27.3184 12.307 27.3486 13.0857 26.8874 13.5862L21.4784 19.5028C21.2373 19.7624 20.9083 19.8991 20.5745 19.8991C20.3706 19.8991 20.1667 19.8481 19.9789 19.7438C19.8932 19.6952 19.8121 19.6372 19.7379 19.57C19.2397 19.1088 19.2095 18.3278 19.6707 17.8296L25.0797 11.913C25.3208 11.6511 25.6522 11.519 25.9836 11.519M25.9836 10.8887C25.4645 10.8887 24.9662 11.1065 24.6162 11.4866L19.2049 17.4055C18.5096 18.1563 18.556 19.3359 19.3092 20.0335C19.4204 20.1355 19.5409 20.2236 19.673 20.2954C19.9488 20.4483 20.2617 20.5295 20.5745 20.5295C21.0913 20.5295 21.5896 20.3116 21.9419 19.9292L27.3532 14.0103C28.0322 13.278 28.0044 12.1332 27.2976 11.431L27.293 11.424L27.2443 11.38C26.899 11.0625 26.4517 10.8887 25.9836 10.8887Z" fill="white"/>
<path d="M67.6498 17.8757C67.2387 20.1503 65.0292 21.9933 62.7169 21.9933L55.5059 22.0002C55.4065 22.0002 55.314 22.079 55.2969 22.1749L54.7694 25.0867C54.6803 25.5697 54.211 25.9636 53.7211 25.9636H50.7476C50.2544 25.9636 49.9255 25.5731 50.0146 25.0867L52.553 11.0449C52.642 10.5619 53.1113 10.168 53.6012 10.168H64.8545C67.1668 10.168 68.7118 12.011 68.3007 14.2856L67.6532 17.8723L67.6498 17.8757ZM62.758 14.1212H56.9344C56.835 14.1212 56.7425 14.2 56.7254 14.2959L56.0814 17.8654C56.0643 17.9647 56.1293 18.0401 56.2287 18.0401H62.0523C62.4908 18.0401 62.9087 17.6907 62.9875 17.2591L63.4157 14.8988C63.4945 14.4672 63.1999 14.1143 62.7614 14.1177L62.758 14.1212Z" fill="black"/>
<path d="M69.0167 25.9632C68.5234 25.9632 68.1945 25.5726 68.2836 25.0862L70.822 11.041C70.9111 10.558 71.3804 10.1641 71.8703 10.1641H83.1235C85.4358 10.1641 86.9808 12.0071 86.5663 14.2851L85.9188 17.8752C85.6345 19.4373 84.5041 20.787 83.0721 21.4824C82.9694 21.5338 82.918 21.6468 82.9659 21.7359L84.8192 24.9629C85.0659 25.3979 84.7576 25.9186 84.2608 25.9186C82.709 25.9186 81.7498 25.9666 81.1161 25.9597C80.0336 25.9769 79.6773 25.9289 79.4786 25.5384L77.7795 22.2258C77.7076 22.0819 77.5568 21.9928 77.3787 21.9928H73.7749C73.6756 21.9963 73.5831 22.0785 73.566 22.1744L73.0384 25.0862C72.9493 25.5692 72.48 25.9632 71.9867 25.9632H69.0098H69.0167ZM74.3504 17.8615C74.3333 17.9608 74.3984 18.0362 74.4977 18.0362H80.3213C80.7598 18.0362 81.1778 17.6868 81.2565 17.2552L81.6847 14.8949C81.7635 14.4633 81.4724 14.1138 81.0304 14.1138H75.2068C75.1075 14.1138 75.015 14.1926 74.9979 14.2885L74.3539 17.8581L74.3504 17.8615Z" fill="black"/>
<path d="M93.4795 10.1797C93.9728 10.1797 94.2982 10.5702 94.2091 11.0567L91.6742 25.0881C91.5851 25.5711 91.1158 25.9651 90.6225 25.9651H87.6456C87.1523 25.9651 86.8234 25.5746 86.9125 25.0881L89.4475 11.0567C89.5366 10.5736 90.0059 10.1797 90.4992 10.1797H93.4795Z" fill="black"/>
<path d="M113.4 14.2465L112.026 21.8446C111.615 24.1193 109.405 25.9623 107.093 25.9623H97.9877C95.6719 25.9623 94.1304 24.1193 94.5414 21.8446L95.9151 14.2465C96.3262 11.9719 98.5358 10.1289 100.848 10.1289H109.953C112.266 10.1289 113.811 11.9719 113.4 14.2465ZM108.528 14.7296C108.58 14.4384 108.384 14.202 108.086 14.202H101.232C100.937 14.202 100.653 14.4384 100.601 14.7296L99.4127 21.3034C99.3613 21.5946 99.5566 21.8309 99.8512 21.8309H106.709C107.004 21.8309 107.288 21.598 107.34 21.3034L108.525 14.7296H108.528Z" fill="black"/>
<path d="M114.465 25.9632C113.972 25.9632 113.643 25.5726 113.732 25.0862L116.27 11.041C116.359 10.558 116.829 10.1641 117.322 10.1641H128.575C130.887 10.1641 132.429 12.0071 132.018 14.2851L131.371 17.8752C131.086 19.4373 129.956 20.787 128.524 21.4824C128.421 21.5338 128.37 21.6468 128.418 21.7359L130.271 24.9629C130.518 25.3979 130.209 25.9186 129.712 25.9186C128.161 25.9186 127.201 25.9666 126.568 25.9597C125.485 25.9769 125.129 25.9289 124.93 25.5384L123.231 22.2258C123.159 22.0819 123.009 21.9928 122.83 21.9928H119.227C119.127 21.9963 119.035 22.0785 119.018 22.1744L118.49 25.0862C118.401 25.5692 117.932 25.9632 117.438 25.9632H114.462H114.465ZM119.799 17.8615C119.782 17.9608 119.847 18.0362 119.946 18.0362H125.77C126.208 18.0362 126.626 17.6868 126.705 17.2552L127.133 14.8949C127.212 14.4633 126.921 14.1138 126.479 14.1138H120.655C120.556 14.1138 120.463 14.1926 120.446 14.2885L119.802 17.8581L119.799 17.8615Z" fill="black"/>
<path d="M138.927 10.1797C139.421 10.1797 139.746 10.5702 139.657 11.0567L137.122 25.0881C137.033 25.5711 136.564 25.9651 136.074 25.9651H133.097C132.603 25.9651 132.275 25.5746 132.364 25.0881L134.899 11.0567C134.988 10.5736 135.457 10.1797 135.95 10.1797H138.931H138.927Z" fill="black"/>
<path d="M156.693 11.0567L156.281 13.3244C156.192 13.8074 155.723 14.2014 155.233 14.2014H150.879C150.78 14.2014 150.687 14.2802 150.67 14.3761L148.735 25.0881C148.646 25.5711 148.176 25.9651 147.683 25.9651H144.706C144.213 25.9651 143.884 25.5746 143.973 25.0881L145.909 14.3761C145.926 14.2768 145.861 14.2014 145.761 14.2014H141.407C140.914 14.2014 140.585 13.8109 140.674 13.3244L141.082 11.0567C141.171 10.5736 141.64 10.1797 142.134 10.1797H155.963C156.456 10.1797 156.782 10.5702 156.696 11.0567H156.693Z" fill="black"/>
<path d="M172.982 10.9725L165.802 20.1669C165.737 20.3108 165.675 20.4513 165.61 20.5951L164.798 25.0827C164.709 25.5657 164.24 25.9597 163.747 25.9597H160.77C160.276 25.9597 159.948 25.5692 160.037 25.0827L160.848 20.5951C160.831 20.4376 160.814 20.2834 160.797 20.1258L156.957 10.9691C156.81 10.6196 157.149 10.1777 157.56 10.1777H161.335C161.65 10.1777 161.91 10.3422 162.02 10.6094L163.973 15.2648C164.041 15.4224 164.257 15.4567 164.36 15.3265L168.042 10.6128C168.251 10.3456 168.573 10.1812 168.888 10.1812H172.664C173.078 10.1812 173.253 10.6231 172.982 10.9759V10.9725Z" fill="black"/>
<path d="M113.557 14.1538L112.173 21.8136C111.759 24.1054 109.532 25.9655 107.199 25.9655H98.0185C95.6857 25.9655 94.1304 24.1054 94.5449 21.8136L95.9289 14.1538C96.3434 11.8621 98.57 10.002 100.903 10.002H110.084C112.417 10.002 113.972 11.8621 113.557 14.1538Z" fill="black"/>
<path d="M101.848 21.2179C101.629 21.2179 101.42 21.1255 101.273 20.961L99.19 18.6453C98.9262 18.3507 98.9262 17.9053 99.19 17.6142L101.273 15.2984C101.41 15.1443 101.602 15.0552 101.807 15.0449H101.852C102.04 15.0449 102.222 15.1134 102.362 15.2402C102.677 15.5245 102.705 16.0144 102.42 16.3295L100.8 18.128L102.42 19.9265C102.705 20.2416 102.681 20.7315 102.362 21.0158C102.222 21.1426 102.037 21.2145 101.845 21.2145L101.848 21.2179Z" fill="white"/>
<path d="M101.852 15.1813C102.006 15.1813 102.153 15.2395 102.27 15.3423C102.53 15.5752 102.551 15.976 102.318 16.2364L100.615 18.1308L102.318 20.0217C102.551 20.2821 102.53 20.6829 102.27 20.9158C102.153 21.022 102.003 21.0768 101.848 21.0768C101.67 21.0768 101.499 21.0015 101.379 20.8679L99.2963 18.5521C99.0805 18.3123 99.0805 17.9458 99.2963 17.706L101.379 15.3903C101.492 15.2635 101.646 15.1916 101.814 15.1813C101.828 15.1813 101.838 15.1813 101.852 15.1813ZM101.852 14.9004C101.835 14.9004 101.814 14.9004 101.797 14.9004C101.557 14.9141 101.331 15.0203 101.17 15.2018L99.0873 17.5176C98.7756 17.8636 98.7756 18.3877 99.0873 18.7371L101.17 21.0529C101.341 21.2447 101.588 21.3543 101.848 21.3543C102.074 21.3543 102.29 21.2721 102.458 21.1214C102.832 20.7857 102.862 20.2067 102.527 19.8333L100.992 18.1274L102.527 16.4214C102.862 16.048 102.832 15.469 102.458 15.1333C102.29 14.9826 102.074 14.9004 101.852 14.9004Z" fill="white"/>
<path d="M106.072 21.2179C105.88 21.2179 105.698 21.146 105.555 21.0193C105.239 20.7349 105.212 20.2451 105.496 19.9299L107.117 18.1314L105.496 16.333C105.212 16.0178 105.236 15.5279 105.555 15.2436C105.695 15.1169 105.88 15.0449 106.072 15.0449C106.291 15.0449 106.5 15.1374 106.644 15.2984L108.727 17.6142C108.991 17.9088 108.991 18.3541 108.727 18.6453L106.644 20.961C106.497 21.122 106.288 21.2179 106.072 21.2179Z" fill="white"/>
<path d="M106.072 15.1813C106.247 15.1813 106.418 15.2532 106.541 15.3903L108.624 17.706C108.84 17.9458 108.84 18.3123 108.624 18.5521L106.541 20.8679C106.421 21.0015 106.25 21.0768 106.072 21.0768C105.914 21.0768 105.767 21.0186 105.651 20.9158C105.39 20.6829 105.37 20.2821 105.603 20.0217L107.305 18.1274L105.603 16.2364C105.37 15.976 105.39 15.5752 105.651 15.3423C105.77 15.2327 105.921 15.1813 106.072 15.1813ZM106.072 14.9004C105.846 14.9004 105.63 14.9826 105.462 15.1333C105.089 15.469 105.058 16.048 105.394 16.4214L106.928 18.1274L105.394 19.8333C105.058 20.2067 105.089 20.7857 105.462 21.1214C105.63 21.2721 105.846 21.3543 106.072 21.3543C106.329 21.3543 106.575 21.2447 106.75 21.0529L108.833 18.7371C109.145 18.3911 109.145 17.8636 108.833 17.5176L106.75 15.2018C106.579 15.01 106.332 14.9004 106.072 14.9004Z" fill="white"/>
<path d="M103.602 18.965C103.485 18.965 103.372 18.9342 103.269 18.8794C103.221 18.852 103.177 18.8211 103.136 18.7835C102.858 18.5265 102.841 18.0915 103.098 17.814L105.496 15.1899C105.626 15.0495 105.808 14.9707 106 14.9707C106.171 14.9707 106.339 15.0358 106.466 15.1523C106.743 15.4092 106.76 15.8442 106.503 16.1217L104.105 18.7458C103.975 18.8862 103.79 18.9684 103.602 18.9684V18.965Z" fill="white"/>
<path d="M106 15.1081C106.133 15.1081 106.264 15.156 106.37 15.2519C106.592 15.4575 106.603 15.8035 106.401 16.0227L104.003 18.6468C103.897 18.7632 103.749 18.8215 103.602 18.8215C103.513 18.8215 103.42 18.7975 103.338 18.753C103.3 18.7324 103.263 18.705 103.232 18.6776C103.009 18.4721 102.996 18.1261 103.201 17.9068L105.599 15.2828C105.705 15.1663 105.853 15.1081 106 15.1081ZM106 14.8272C105.77 14.8272 105.548 14.9231 105.394 15.0909L102.992 17.715C102.684 18.0473 102.704 18.5714 103.04 18.8797C103.088 18.9242 103.143 18.9653 103.201 18.9962C103.324 19.0647 103.461 19.0989 103.602 19.0989C103.831 19.0989 104.051 19.003 104.208 18.8317L106.61 16.2077C106.911 15.8823 106.897 15.3787 106.589 15.067L106.565 15.0396C106.411 14.8991 106.212 14.8203 106.007 14.8203L106 14.8272Z" fill="white"/>
</svg>
