<svg width="44" height="36" viewBox="0 0 44 36" fill="none" xmlns="http://www.w3.org/2000/svg">
<path d="M43.0243 9.36464L39.905 26.6369C38.971 31.8073 33.9467 35.9996 28.6883 35.9996H7.98376C2.72304 35.9996 -0.783337 31.805 0.150615 26.6369L3.27228 9.36464C4.20623 4.19431 9.22825 0.00195312 14.489 0.00195312H35.1912C40.4519 0.00195312 43.9606 4.19662 43.0243 9.36464Z" fill="black"/>
<path d="M16.6231 25.2911C16.1295 25.2911 15.6567 25.0802 15.33 24.714L10.6301 19.4927C10.0322 18.8276 10.0322 17.8264 10.6301 17.1636L15.33 11.94C15.6405 11.5947 16.0669 11.3907 16.5327 11.3676C16.5652 11.3676 16.5999 11.3652 16.6347 11.3652C17.0588 11.3652 17.469 11.5228 17.7888 11.8125L17.8931 11.9075V11.9168C18.5072 12.568 18.5281 13.5947 17.9186 14.2737L14.2662 18.3316L17.9186 22.3896C18.5606 23.1034 18.5026 24.2065 17.7888 24.8484C17.469 25.1358 17.0565 25.2957 16.6254 25.2957L16.6231 25.2911Z" fill="white"/>
<path d="M16.6326 11.6831C16.9802 11.6831 17.3139 11.8129 17.5758 12.0493C18.1598 12.5753 18.2062 13.4792 17.6824 14.0632L13.84 18.332L17.6824 22.5985C18.2085 23.1825 18.1598 24.0863 17.5758 24.6124C17.3139 24.8488 16.9756 24.9786 16.6233 24.9786C16.2201 24.9786 15.833 24.8071 15.5642 24.5058L10.8643 19.2845C10.3753 18.7399 10.3753 17.9195 10.8643 17.3772L15.5642 12.1535C15.8191 11.8708 16.1691 11.704 16.5491 11.6854C16.577 11.6854 16.6048 11.6831 16.6349 11.6831M16.6349 11.0527C16.5932 11.0527 16.5538 11.0527 16.5121 11.0574C15.9675 11.0852 15.4646 11.3262 15.0984 11.7341L10.3985 16.9577C9.69399 17.741 9.69399 18.923 10.3985 19.7086L15.0984 24.9299C15.4854 25.3633 16.0439 25.6113 16.6256 25.6113C17.1332 25.6113 17.6221 25.4235 17.9999 25.0829C18.8411 24.325 18.9107 23.0226 18.1529 22.179L14.6905 18.332L18.1529 14.4849C18.519 14.0771 18.7067 13.551 18.6766 13.0017C18.6534 12.5545 18.4889 12.1373 18.2085 11.799V11.7688L17.9999 11.5811C17.6221 11.2405 17.1378 11.0527 16.6349 11.0527Z" fill="white"/>
<path d="M26.1507 25.2911C25.7197 25.2911 25.3072 25.1335 24.9873 24.8438C24.2736 24.2018 24.2156 23.0987 24.8576 22.3849L28.5099 18.327L24.8576 14.2714C24.2156 13.5576 24.2736 12.4545 24.9873 11.8125C25.3072 11.5251 25.722 11.3652 26.1507 11.3652C26.6444 11.3652 27.1148 11.5738 27.4439 11.94L32.1438 17.1636C32.7417 17.8264 32.7417 18.8276 32.1438 19.4927L27.4439 24.7163C27.1148 25.0825 26.642 25.2911 26.1507 25.2911Z" fill="white"/>
<path d="M26.1508 11.6831C26.5401 11.6831 26.9295 11.843 27.2099 12.1535L31.9098 17.3772C32.3988 17.9218 32.3988 18.7399 31.9098 19.2845L27.2099 24.5081C26.9411 24.8071 26.554 24.9786 26.1508 24.9786C25.7985 24.9786 25.4602 24.8488 25.1983 24.6124C24.6143 24.0863 24.5679 23.1825 25.0917 22.5985L28.9341 18.3297L25.0917 14.0632C24.5656 13.4792 24.6143 12.5753 25.1983 12.0493C25.4718 11.8036 25.8124 11.6831 26.1508 11.6831ZM26.1508 11.0527C25.6433 11.0527 25.1543 11.2405 24.7765 11.5788C23.9353 12.3366 23.8657 13.6391 24.6236 14.4826L28.0859 18.3297L24.6236 22.1767C23.8657 23.018 23.9329 24.3204 24.7765 25.0805C25.1566 25.4212 25.6433 25.6089 26.1508 25.6089C26.7325 25.6089 27.291 25.361 27.678 24.9299L32.3779 19.7063C33.0824 18.923 33.0824 17.741 32.3779 16.9554L27.678 11.7318C27.2887 11.3007 26.7325 11.0527 26.1508 11.0527Z" fill="white"/>
<path d="M20.5771 20.2136C20.3175 20.2136 20.058 20.1463 19.8285 20.0189C19.7196 19.9586 19.62 19.8868 19.5273 19.801C18.9015 19.2217 18.8621 18.2414 19.4415 17.6156L24.8505 11.6991C25.1425 11.3816 25.5574 11.2031 25.9884 11.2031C26.3778 11.2031 26.7509 11.3491 27.0359 11.611L27.0638 11.6365C27.664 12.2182 27.6941 13.18 27.124 13.7987L21.715 19.7153C21.4206 20.0328 21.0081 20.2136 20.5794 20.2136H20.5771Z" fill="white"/>
<path d="M25.9859 11.519C26.2848 11.519 26.5838 11.6256 26.8202 11.8435C27.3184 12.307 27.3486 13.0857 26.8874 13.5862L21.4784 19.5028C21.2373 19.7624 20.9083 19.8991 20.5745 19.8991C20.3706 19.8991 20.1667 19.8481 19.9789 19.7438C19.8932 19.6952 19.8121 19.6372 19.7379 19.57C19.2397 19.1088 19.2095 18.3278 19.6707 17.8296L25.0797 11.913C25.3208 11.6511 25.6522 11.519 25.9836 11.519M25.9836 10.8887C25.4645 10.8887 24.9662 11.1065 24.6162 11.4866L19.2049 17.4055C18.5096 18.1563 18.556 19.3359 19.3092 20.0335C19.4204 20.1355 19.5409 20.2236 19.673 20.2954C19.9488 20.4483 20.2617 20.5295 20.5745 20.5295C21.0913 20.5295 21.5896 20.3116 21.9419 19.9292L27.3532 14.0103C28.0322 13.278 28.0044 12.1332 27.2976 11.431L27.293 11.424L27.2443 11.38C26.899 11.0625 26.4517 10.8887 25.9836 10.8887Z" fill="white"/>
</svg>
