<svg width="124" height="16" viewBox="0 0 124 16" fill="none" xmlns="http://www.w3.org/2000/svg">
<path d="M17.6498 7.87568C17.2387 10.1503 15.0292 11.9933 12.7169 11.9933L5.50587 12.0002C5.40653 12.0002 5.31404 12.079 5.29691 12.1749L4.76936 15.0867C4.68029 15.5697 4.21098 15.9636 3.72111 15.9636H0.747647C0.254354 15.9636 -0.0745082 15.5731 0.0145587 15.0867L2.55297 1.04493C2.64203 0.561918 3.11135 0.167969 3.60121 0.167969H14.8545C17.1668 0.167969 18.7118 2.01097 18.3007 4.2856L17.6532 7.87225L17.6498 7.87568ZM12.758 4.12117H6.93437C6.83503 4.12117 6.74253 4.19996 6.7254 4.29588L6.08139 7.8654C6.06426 7.96475 6.12934 8.04011 6.22869 8.04011H12.0523C12.4908 8.04011 12.9087 7.69069 12.9875 7.25906L13.4157 4.89879C13.4945 4.46716 13.1999 4.11432 12.7614 4.11774L12.758 4.12117Z" fill="black"/>
<path d="M19.0167 15.9632C18.5234 15.9632 18.1945 15.5726 18.2836 15.0862L20.822 1.04103C20.9111 0.558013 21.3804 0.164062 21.8703 0.164062H33.1235C35.4358 0.164062 36.9808 2.00706 36.5663 4.28512L35.9188 7.8752C35.6345 9.43729 34.5041 10.787 33.0721 11.4824C32.9694 11.5338 32.918 11.6468 32.9659 11.7359L34.8192 14.9629C35.0659 15.3979 34.7576 15.9186 34.2608 15.9186C32.709 15.9186 31.7498 15.9666 31.1161 15.9597C30.0336 15.9769 29.6773 15.9289 29.4786 15.5384L27.7795 12.2258C27.7076 12.0819 27.5568 11.9928 27.3787 11.9928H23.7749C23.6756 11.9963 23.5831 12.0785 23.566 12.1744L23.0384 15.0862C22.9493 15.5692 22.48 15.9632 21.9867 15.9632H19.0098H19.0167ZM24.3504 7.8615C24.3333 7.96084 24.3984 8.0362 24.4977 8.0362H30.3213C30.7598 8.0362 31.1778 7.68679 31.2565 7.25516L31.6847 4.89489C31.7635 4.46325 31.4724 4.11384 31.0304 4.11384H25.2068C25.1075 4.11384 25.015 4.19263 24.9979 4.28854L24.3539 7.85807L24.3504 7.8615Z" fill="black"/>
<path d="M43.4795 0.179688C43.9728 0.179688 44.2982 0.570211 44.2091 1.05665L41.6742 15.0881C41.5851 15.5711 41.1158 15.9651 40.6225 15.9651H37.6456C37.1523 15.9651 36.8234 15.5746 36.9125 15.0881L39.4475 1.05665C39.5366 0.573636 40.0059 0.179688 40.4992 0.179688H43.4795Z" fill="black"/>
<path d="M63.3996 4.24654L62.026 11.8446C61.6149 14.1193 59.4053 15.9623 57.093 15.9623H47.9877C45.6719 15.9623 44.1304 14.1193 44.5414 11.8446L45.9151 4.24654C46.3262 1.9719 48.5358 0.128906 50.8481 0.128906H59.9534C62.2658 0.128906 63.8107 1.9719 63.3996 4.24654ZM58.5284 4.72955C58.5798 4.43837 58.3845 4.202 58.0865 4.202H51.2317C50.9371 4.202 50.6528 4.43837 50.6014 4.72955L49.4127 11.3034C49.3613 11.5946 49.5566 11.8309 49.8512 11.8309H56.7094C57.004 11.8309 57.2883 11.598 57.3397 11.3034L58.5249 4.72955H58.5284Z" fill="black"/>
<path d="M64.4649 15.9632C63.9716 15.9632 63.6428 15.5726 63.7318 15.0862L66.2703 1.04103C66.3593 0.558013 66.8286 0.164062 67.3219 0.164062H78.5752C80.8875 0.164062 82.429 2.00706 82.018 4.28512L81.3705 7.8752C81.0862 9.43729 79.9557 10.787 78.5238 11.4824C78.421 11.5338 78.3696 11.6468 78.4176 11.7359L80.2709 14.9629C80.5175 15.3979 80.2092 15.9186 79.7125 15.9186C78.1607 15.9186 77.2015 15.9666 76.5678 15.9597C75.4852 15.9769 75.129 15.9289 74.9303 15.5384L73.2312 12.2258C73.1592 12.0819 73.0085 11.9928 72.8304 11.9928H69.2266C69.1272 11.9963 69.0347 12.0785 69.0176 12.1744L68.4901 15.0862C68.401 15.5692 67.9317 15.9632 67.4384 15.9632H64.4615H64.4649ZM69.7987 7.8615C69.7815 7.96084 69.8466 8.0362 69.946 8.0362H75.7696C76.2081 8.0362 76.626 7.68679 76.7048 7.25516L77.133 4.89489C77.2118 4.46325 76.9206 4.11384 76.4787 4.11384H70.6551C70.5557 4.11384 70.4632 4.19263 70.4461 4.28854L69.8021 7.85807L69.7987 7.8615Z" fill="black"/>
<path d="M88.9272 0.179688C89.4205 0.179688 89.7459 0.570211 89.6569 1.05665L87.1219 15.0881C87.0328 15.5711 86.5635 15.9651 86.0737 15.9651H83.0968C82.6035 15.9651 82.2746 15.5746 82.3637 15.0881L84.8987 1.05665C84.9877 0.573636 85.457 0.179688 85.9503 0.179688H88.9306H88.9272Z" fill="black"/>
<path d="M106.693 1.05665L106.281 3.32443C106.192 3.80745 105.723 4.2014 105.233 4.2014H100.879C100.78 4.2014 100.687 4.28019 100.67 4.37611L98.7348 15.0881C98.6457 15.5711 98.1764 15.9651 97.6831 15.9651H94.7062C94.2129 15.9651 93.8841 15.5746 93.9731 15.0881L95.9086 4.37611C95.9257 4.27676 95.8607 4.2014 95.7613 4.2014H91.4073C90.914 4.2014 90.5852 3.81088 90.6742 3.32443L91.0819 1.05665C91.1709 0.573636 91.6403 0.179688 92.1336 0.179688H105.963C106.456 0.179688 106.782 0.570211 106.696 1.05665H106.693Z" fill="black"/>
<path d="M122.982 0.972485L115.802 10.1669C115.737 10.3108 115.675 10.4513 115.61 10.5951L114.798 15.0827C114.709 15.5657 114.24 15.9597 113.747 15.9597H110.77C110.276 15.9597 109.948 15.5692 110.037 15.0827L110.848 10.5951C110.831 10.4376 110.814 10.2834 110.797 10.1258L106.957 0.96906C106.81 0.619644 107.149 0.177734 107.56 0.177734H111.335C111.65 0.177734 111.91 0.342166 112.02 0.609367L113.973 5.26482C114.041 5.4224 114.257 5.45666 114.36 5.32648L118.042 0.612792C118.251 0.345591 118.573 0.181161 118.888 0.181161H122.664C123.078 0.181161 123.253 0.623069 122.982 0.975911V0.972485Z" fill="black"/>
<path d="M63.5573 4.15384L62.1733 11.8136C61.7588 14.1054 59.5321 15.9655 57.1993 15.9655H48.0185C45.6857 15.9655 44.1304 14.1054 44.5449 11.8136L45.9289 4.15384C46.3434 1.86208 48.57 0.00195312 50.9029 0.00195312H60.0837C62.4165 0.00195312 63.9718 1.86208 63.5573 4.15384Z" fill="black"/>
<path d="M51.8483 11.2179C51.6291 11.2179 51.4201 11.1255 51.2728 10.961L49.19 8.64528C48.9262 8.35067 48.9262 7.90534 49.19 7.61416L51.2728 5.29842C51.4098 5.14427 51.6017 5.0552 51.8072 5.04492H51.8518C52.0402 5.04492 52.2217 5.11344 52.3622 5.24019C52.6773 5.52452 52.7047 6.01438 52.4204 6.32954L50.8001 8.12801L52.4204 9.92647C52.7047 10.2416 52.6808 10.7315 52.3622 11.0158C52.2217 11.1426 52.0367 11.2145 51.8449 11.2145L51.8483 11.2179Z" fill="white"/>
<path d="M51.8518 5.18129C52.006 5.18129 52.1533 5.23953 52.2697 5.3423C52.5301 5.57524 52.5506 5.97605 52.3177 6.23639L50.6152 8.13078L52.3177 10.0217C52.5506 10.2821 52.5301 10.6829 52.2697 10.9158C52.1533 11.022 52.0025 11.0768 51.8484 11.0768C51.6703 11.0768 51.499 11.0015 51.3791 10.8679L49.2963 8.55213C49.0805 8.31234 49.0805 7.94579 49.2963 7.706L51.3791 5.39026C51.4921 5.26351 51.6463 5.19157 51.8141 5.18129C51.8278 5.18129 51.8381 5.18129 51.8518 5.18129ZM51.8518 4.90039C51.8347 4.90039 51.8141 4.90039 51.797 4.90039C51.5572 4.91409 51.3311 5.02029 51.1701 5.20185L49.0873 7.51759C48.7756 7.86358 48.7756 8.3877 49.0873 8.73712L51.1701 11.0529C51.3414 11.2447 51.588 11.3543 51.8484 11.3543C52.0745 11.3543 52.2903 11.2721 52.4582 11.1214C52.8315 10.7857 52.8624 10.2067 52.5267 9.83333L50.992 8.12735L52.5267 6.42138C52.8624 6.04798 52.8315 5.46905 52.4582 5.13333C52.2903 4.98261 52.0745 4.90039 51.8518 4.90039Z" fill="white"/>
<path d="M56.0719 11.2179C55.88 11.2179 55.6985 11.146 55.5546 11.0193C55.2394 10.7349 55.212 10.2451 55.4964 9.9299L57.1167 8.13143L55.4964 6.33297C55.212 6.01781 55.236 5.52794 55.5546 5.24361C55.6951 5.11686 55.88 5.04492 56.0719 5.04492C56.2911 5.04492 56.5001 5.13742 56.644 5.29842L58.7268 7.61416C58.9905 7.90876 58.9905 8.3541 58.7268 8.64528L56.644 10.961C56.4967 11.122 56.2877 11.2179 56.0719 11.2179Z" fill="white"/>
<path d="M56.0719 5.18129C56.2466 5.18129 56.4179 5.25323 56.5412 5.39026L58.624 7.706C58.8398 7.94579 58.8398 8.31234 58.624 8.55213L56.5412 10.8679C56.4213 11.0015 56.25 11.0768 56.0719 11.0768C55.9143 11.0768 55.767 11.0186 55.6505 10.9158C55.3902 10.6829 55.3696 10.2821 55.6026 10.0217L57.3051 8.12735L55.6026 6.23639C55.3696 5.97605 55.3902 5.57524 55.6505 5.3423C55.7704 5.23268 55.9212 5.18129 56.0719 5.18129ZM56.0719 4.90039C55.8458 4.90039 55.63 4.98261 55.4621 5.13333C55.0887 5.46905 55.0579 6.04798 55.3936 6.42138L56.9283 8.12735L55.3936 9.83333C55.0579 10.2067 55.0887 10.7857 55.4621 11.1214C55.63 11.2721 55.8458 11.3543 56.0719 11.3543C56.3288 11.3543 56.5755 11.2447 56.7502 11.0529L58.833 8.73712C59.1447 8.39113 59.1447 7.86358 58.833 7.51759L56.7502 5.20185C56.5789 5.01001 56.3322 4.90039 56.0719 4.90039Z" fill="white"/>
<path d="M53.6017 8.96501C53.4852 8.96501 53.3722 8.93418 53.2694 8.87937C53.2214 8.85196 53.1769 8.82113 53.1358 8.78345C52.8583 8.52653 52.8412 8.09147 53.0981 7.81399L55.4961 5.18994C55.6262 5.04949 55.8078 4.9707 55.9996 4.9707C56.1709 4.9707 56.3388 5.03579 56.4655 5.15226C56.743 5.40919 56.7601 5.84424 56.5032 6.12172L54.1052 8.74577C53.9751 8.88622 53.7901 8.96844 53.6017 8.96844V8.96501Z" fill="white"/>
<path d="M55.9999 5.10807C56.1335 5.10807 56.2636 5.15602 56.3698 5.25194C56.5925 5.45748 56.6028 5.80347 56.4007 6.02271L54.0027 8.64676C53.8965 8.76323 53.7492 8.82147 53.6019 8.82147C53.5128 8.82147 53.4203 8.79749 53.3381 8.75296C53.3004 8.7324 53.2628 8.705 53.2319 8.67759C53.0093 8.47205 52.9956 8.12606 53.2011 7.90682L55.5991 5.28277C55.7053 5.1663 55.8526 5.10807 55.9999 5.10807ZM55.9999 4.82716C55.7703 4.82716 55.5477 4.92308 55.3935 5.09094L52.9921 7.71498C52.6838 8.04727 52.7044 8.5714 53.0401 8.87971C53.0881 8.92424 53.1429 8.96535 53.2011 8.99618C53.3244 9.06469 53.4614 9.09895 53.6019 9.09895C53.8314 9.09895 54.0507 9.00303 54.2082 8.83175L56.6096 6.2077C56.9111 5.88226 56.8974 5.37869 56.5891 5.06696L56.5651 5.03955C56.4109 4.8991 56.2123 4.82031 56.0067 4.82031L55.9999 4.82716Z" fill="white"/>
</svg>
